<svg xmlns="http://www.w3.org/2000/svg" viewBox="0 0 1200 1500" width="1200" height="1500" role="img" aria-label="ภาพคู่บ่าวสาว">
  <defs><linearGradient id="hg" x1="0" y1="0" x2="0" y2="1"><stop offset="0" stop-color="#fffdf9"/><stop offset="0.6" stop-color="#f6ecdb"/><stop offset="1" stop-color="#efe1cb"/></linearGradient></defs>
  <rect width="1200" height="1500" fill="url(#hg)"/>
  <path d="M200 1200 L200 640 A400 400 0 0 1 1000 640 L1000 1200 Z" fill="#ffffff" opacity="0.6"/>
  <path d="M200 1200 L200 640 A400 400 0 0 1 1000 640 L1000 1200" fill="none" stroke="#c8a664" stroke-width="2" opacity="0.6"/>
  <g transform="translate(600 1000) scale(2.4)" >
  <g fill="#4a3f35" opacity="0.9">
    <circle cx="-46" cy="-104" r="30"/>
    <path d="M-46 -70 C -92 -70 -104 -22 -104 40 L 12 40 C 12 -22 0 -70 -46 -70 Z"/>
  </g>
  <g fill="#c8a664" opacity="0.95">
    <circle cx="46" cy="-96" r="29"/>
    <path d="M46 -64 C 8 -64 -6 -14 -6 40 L 104 40 C 104 -14 88 -64 46 -64 Z"/>
    <path d="M18 -108 C 24 -134 68 -134 74 -108 C 60 -120 32 -120 18 -108 Z" opacity="0.8"/>
  </g>
</g>
  <g transform="translate(120 260) rotate(-20) scale(1.8)" opacity="0.55"><path d="M0 0 C 18 -14 42 -12 56 2 C 40 18 14 16 0 0 Z" fill="none" stroke="#c8a664" stroke-width="1.6"/><path d="M0 0 L 56 2" stroke="#c8a664" stroke-width="1"/></g><g transform="translate(1080 300) rotate(200) scale(1.8)" opacity="0.55"><path d="M0 0 C 18 -14 42 -12 56 2 C 40 18 14 16 0 0 Z" fill="none" stroke="#c8a664" stroke-width="1.6"/><path d="M0 0 L 56 2" stroke="#c8a664" stroke-width="1"/></g>
  <g transform="translate(150 1320) rotate(20) scale(1.6)" opacity="0.55"><path d="M0 0 C 18 -14 42 -12 56 2 C 40 18 14 16 0 0 Z" fill="none" stroke="#c8a664" stroke-width="1.6"/><path d="M0 0 L 56 2" stroke="#c8a664" stroke-width="1"/></g><g transform="translate(1050 1350) rotate(160) scale(1.6)" opacity="0.55"><path d="M0 0 C 18 -14 42 -12 56 2 C 40 18 14 16 0 0 Z" fill="none" stroke="#c8a664" stroke-width="1.6"/><path d="M0 0 L 56 2" stroke="#c8a664" stroke-width="1"/></g>
</svg>